<?xml version="1.0" standalone="no"?>
<!DOCTYPE svg PUBLIC "-//W3C//DTD SVG 20010904//EN"
 "http://www.w3.org/TR/2001/REC-SVG-20010904/DTD/svg10.dtd">
<svg version="1.0" xmlns="http://www.w3.org/2000/svg"
 width="512.000000pt" height="512.000000pt" viewBox="0 0 512.000000 512.000000"
 preserveAspectRatio="xMidYMid meet">
<metadata>
Created by potrace 1.14, written by Peter Selinger 2001-2017
</metadata>
<g transform="translate(0.000000,512.000000) scale(0.100000,-0.100000)"
fill="#000000" stroke="none">
<path d="M1040 4389 c-151 -8 -340 -37 -474 -71 -114 -29 -129 -47 -134 -154
l-4 -74 -182 0 c-194 0 -208 -4 -235 -57 -17 -33 -15 -3219 2 -3253 7 -14 29
-33 49 -43 l37 -18 128 55 c678 289 1426 352 2195 186 l137 -30 133 29 c164
36 366 67 518 81 230 20 650 8 849 -26 333 -55 580 -127 842 -242 128 -57 154
-58 194 -10 l25 30 0 1609 c0 1751 3 1651 -55 1677 -17 8 -88 12 -205 12
l-180 0 0 76 c0 85 -9 108 -48 128 -72 36 -344 82 -573 95 -582 35 -1067 -108
-1424 -418 l-79 -69 -72 67 c-212 198 -521 339 -869 395 -94 15 -360 37 -415
34 -14 0 -86 -4 -160 -9z m355 -199 c354 -31 632 -127 860 -298 44 -33 108
-89 142 -124 l62 -63 2 -1230 c2 -768 -1 -1230 -7 -1230 -5 0 -58 25 -119 56
-235 121 -467 186 -800 225 -164 19 -580 19 -760 0 -71 -7 -133 -10 -138 -7
-4 4 -6 594 -5 1311 l3 1305 134 22 c234 40 426 50 626 33z m2685 0 c153 -12
379 -47 398 -62 9 -8 12 -282 12 -1309 0 -714 -3 -1300 -7 -1302 -5 -3 -66 1
-138 9 -185 21 -603 21 -773 0 -331 -40 -563 -107 -801 -231 -57 -30 -108 -52
-112 -49 -5 3 -9 544 -9 1225 l0 1220 26 34 c34 45 172 162 254 215 204 132
484 222 775 249 130 12 222 12 375 1z m-3640 -1563 l5 -1269 28 -24 c34 -29
29 -29 252 -3 217 26 620 31 780 11 142 -19 327 -57 415 -87 l75 -25 -145 7
c-505 25 -893 -18 -1326 -147 -72 -22 -173 -55 -223 -75 -51 -19 -97 -33 -102
-29 -11 6 -13 2897 -2 2908 4 3 59 5 122 4 l116 -3 5 -1268z m4488 -181 c1
-798 -2 -1454 -6 -1458 -5 -5 -57 10 -116 32 -481 178 -971 248 -1541 218
l-140 -8 75 26 c88 30 263 67 405 85 167 22 574 17 803 -10 213 -25 245 -22
263 26 5 14 9 543 9 1277 0 689 3 1256 7 1260 4 3 59 5 122 4 l116 -3 3 -1449z"/>
</g>
</svg>
